<svg id="Layer_1" data-name="Layer 1" xmlns="http://www.w3.org/2000/svg" viewBox="0 0 543.06 193.06">
  <rect x="319.3" y="35.72" width="2.58" height="129.89"/>
  <path d="M107.55,61.91c11.14-15,8.88-29.4-9-43.41-19.16,15-20,30.45-7.82,45.25,1.81,2.11,7.82,7.82,7.82,7.82s6.68-.13,16.84,3.9a60.52,60.52,0,0,0-11.25-13.8C96.52,55.08,88,43.28,98.57,33.51c7.11,6.6,5.55,14.12,1.44,20.33,0,0,.47,1.51,5.56,6.23a25.09,25.09,0,0,0,2,1.84"/>
  <path d="M96.77,72.89a40.34,40.34,0,0,0-7.89,14.38,66.88,66.88,0,0,0-2.78,15.81c-4.27-1-10.55-6.27-10.55-6.27A62.27,62.27,0,0,1,80,78.49a39.64,39.64,0,0,1,9.1-13.28Z"/>
  <path d="M63.61,87.91c-15-11.15-29.4-8.89-43.4,9,15,19.15,30.44,20,45.24,7.81,2.11-1.8,7.82-7.81,7.82-7.81S73.15,90.2,77.18,80A60.75,60.75,0,0,0,63.37,91.29c-6.59,7.64-18.38,16.13-28.16,5.6,6.6-7.12,14.12-5.56,20.34-1.45,0,0,1.5-.47,6.23-5.55.68-.74,1.32-1.32,1.83-2"/>
  <path d="M74.59,98.68A40.31,40.31,0,0,0,89,106.57a66.38,66.38,0,0,0,15.81,2.78c-1,4.27-6.27,10.55-6.27,10.55a61.85,61.85,0,0,1-18.31-4.42,39.66,39.66,0,0,1-13.29-9.13Z"/>
  <path d="M89.61,131.84c-11.14,15-8.89,29.41,9,43.41,19.15-15,20-30.45,7.81-45.25-1.8-2.11-7.81-7.82-7.81-7.82s-6.68.13-16.84-3.91A60.23,60.23,0,0,0,93,132.08c7.64,6.59,16.14,18.38,5.6,28.16-7.12-6.6-5.56-14.12-1.44-20.34,0,0-.47-1.5-5.56-6.22a25.09,25.09,0,0,0-2-1.84"/>
  <path d="M100.38,120.86a40.34,40.34,0,0,0,7.89-14.38,66.9,66.9,0,0,0,2.79-15.81c4.26,1,10.55,6.27,10.55,6.27a62.54,62.54,0,0,1-4.42,18.32,39.7,39.7,0,0,1-9.14,13.28Z"/>
  <path d="M133.54,105.84c15,11.15,29.41,8.89,43.41-9-15-19.15-30.44-20-45.25-7.81-2.1,1.8-7.82,7.81-7.82,7.81s.13,6.68-3.9,16.85a60.79,60.79,0,0,0,13.81-11.25c6.59-7.64,18.38-16.13,28.15-5.6-6.6,7.12-14.11,5.56-20.33,1.44,0,0-1.5.48-6.23,5.56-.68.73-1.32,1.32-1.84,2"/>
  <path d="M122.57,95.07a40.34,40.34,0,0,0-14.38-7.89A66.37,66.37,0,0,0,92.37,84.4c1-4.27,6.28-10.55,6.28-10.55A62.1,62.1,0,0,1,117,78.27a39.66,39.66,0,0,1,13.29,9.13Z"/>
  <path d="M37.49,80.1a27.93,27.93,0,0,1,8.42-1.3,25.16,25.16,0,0,1,3.47.21A52.53,52.53,0,0,1,80.77,47.66a28.56,28.56,0,0,1-.16-3.33A27.76,27.76,0,0,1,82,35.76,63.44,63.44,0,0,0,37.49,80.1"/>
  <path d="M81.81,158a27.63,27.63,0,0,1-1.31-8.42,28.56,28.56,0,0,1,.21-3.46,52.52,52.52,0,0,1-31.35-31.4,28.28,28.28,0,0,1-3.32.16,27.47,27.47,0,0,1-8.58-1.34A63.44,63.44,0,0,0,81.81,158"/>
  <path d="M159.67,113.65a27.93,27.93,0,0,1-8.42,1.3,28.73,28.73,0,0,1-3.47-.21,52.53,52.53,0,0,1-31.39,31.35,28.56,28.56,0,0,1,.16,3.33,27.41,27.41,0,0,1-1.34,8.57,63.44,63.44,0,0,0,44.46-44.34"/>
  <path d="M115.35,35.79a27.63,27.63,0,0,1,1.31,8.42,28.56,28.56,0,0,1-.21,3.46,52.54,52.54,0,0,1,31.35,31.4,29.78,29.78,0,0,1,11.9,1.17,63.42,63.42,0,0,0-44.35-44.45"/>
  <path d="M195.15,123.33V105.39h.92l26.42,28.25.37.32c.11-1.94.17-3.92.17-5.85V110.92l-.22-4.3-.05-.42a17.92,17.92,0,0,0,2.31.15,6,6,0,0,0,1.34-.15,5.2,5.2,0,0,1-.11,1.29l-.27,5.26-.48,12.73-.16,12,.16,6.07h-.81c-1.07-1.29-2.14-2.58-3.27-3.81L212.72,130l-15-16-.11,5c-.05,2.68,0,5.32,0,8v4.29l.16,6.34.27,5.16a10.45,10.45,0,0,0-3.7,0c.21-2.37.38-4.73.43-7.09Z"/>
  <path d="M240.74,124.24l.16,11.65.22,5.8.1,1.19c-.8-.06-1.66-.27-2.47-.27-1,0-1.88.21-2.84.27.05-.38.05-.81.1-1.19l.22-4.24.21-12.56V111.78l-.27-5.69c.92,0,1.83.21,2.74.21s1.67-.11,2.47-.16a6.93,6.93,0,0,1-.1,1.45l-.22,4.89-.27,9.34,6.93.17,15.36-.17V110.44l-.27-4.35c.91,0,1.83.21,2.74.21s1.67-.11,2.53-.16a14,14,0,0,0-.17,1.45l-.48,17.51.16,12.08.27,5.7c-.81-.06-1.61-.27-2.42-.27s-1.88.21-2.84.27a4.37,4.37,0,0,1,.11-1.19l.26-5.53.16-11.92Z"/>
  <path d="M276.82,135.79c2.1,3.43,4.51,5.47,8.7,5.47a7.47,7.47,0,0,0,7.47-7.49v-.24c0-3.6-2.42-5.42-5.43-6.76-2.52-1.19-5.26-2-7.57-3.6a8.89,8.89,0,0,1-3.82-7.36c0-6.93,5.48-10.31,11.93-10.31a12.13,12.13,0,0,1,7.68,2.57,28.44,28.44,0,0,0-1.45,4.41h-.54a7,7,0,0,0-6.66-4.84,6.47,6.47,0,0,0-6.76,6.18,2.44,2.44,0,0,0,0,.27,6.19,6.19,0,0,0,2.31,5,6.38,6.38,0,0,0,2.1,1.28,21.23,21.23,0,0,0,2,.92c.8.32,1.61.64,2.41,1s1.72.69,2.48,1.12a11.67,11.67,0,0,1,3.38,2.31,8.93,8.93,0,0,1,2.2,5.7c0,7.68-6,12.13-13.26,12.13-2.64,0-6.93-1-8.76-3a24.48,24.48,0,0,0,1-4.78Z"/>
  <path d="M201.27,165.31a6.11,6.11,0,0,0-1.2-.12,8.27,8.27,0,0,0-1.22.12c-1.34-5.17-2.93-10.27-4.51-15.39l-.16-.69c.63.05,1.26.12,1.9.12s1.29-.07,1.93-.12c.94,4,2,7.85,3.1,11.75,1.34-3.92,2.86-7.77,4.06-11.75a6.11,6.11,0,0,0,1.2.12,5.54,5.54,0,0,0,1.15-.12c1.06,4,2.59,7.8,3.74,11.75,1.24-3.87,2.49-7.77,3.48-11.75a8.27,8.27,0,0,0,1,.12,4.72,4.72,0,0,0,1.06-.12v.19c-1.93,5.24-3.76,10.53-5.38,15.89a6.11,6.11,0,0,0-1.2-.12,8.27,8.27,0,0,0-1.22.12c-1-3.88-2.37-7.66-3.74-11.42-1.31,3.73-2.7,7.42-4,11.18Z"/>
  <path d="M229.49,159.08h4.3c-.66-1.83-1.36-3.66-2.09-5.47-.75,1.74-1.48,3.47-2.14,5.26Zm-4.42,6,1.74-4c1.74-4,3.41-7.94,4.89-12a3.66,3.66,0,0,0,1.78,0l.17.39q2.92,7.72,6.16,15.35l.11.26v.21c-.66,0-1.34-.12-2-.12a16.65,16.65,0,0,0-2,.12c-.49-1.62-1-3.22-1.62-4.8-.87,0-1.71-.07-2.58-.07s-1.91,0-2.87.05l-.12.33c-.51,1.48-1.1,2.94-1.48,4.49a5.08,5.08,0,0,0-1.1-.12,7,7,0,0,0-1.11.12Z"/>
  <path d="M249.69,149.23c.64.05,1.27.12,1.91.12s1.29-.07,1.92-.12c0,1.41-.16,2.8-.18,4.21v10.19l1.27,0c1.38,0,2.75-.13,4.11-.25a5.6,5.6,0,0,0,0,2l-4-.14c-1.08,0-2.14.07-3.2.07a18.25,18.25,0,0,0-2,.07c.17-2.54.22-5.08.22-7.62V154.9c0-1.75-.09-3.46-.14-5.2Z"/>
  <path d="M268.94,149.23c1.24,0,2.49.15,3.73.15,1.77,0,3.55-.1,5.31-.12a5.08,5.08,0,0,0,0,1.74v.28a50.51,50.51,0,0,0-5.36-.28v5.05l5.33-.19a10.46,10.46,0,0,0-.12,1.11,6.57,6.57,0,0,0,.12.89c-1.39-.1-2.77-.17-4.18-.19h-1.15v6c1.81,0,3.61-.12,5.42-.3a5,5,0,0,0,0,1.73v.29c-1.4,0-2.84-.14-4.25-.14-.92,0-1.85.07-2.77.07a20.75,20.75,0,0,0-2.09.07,8.54,8.54,0,0,1,.07-1.34c0-1.46.09-2.92.11-4.4v-6.32c0-1.22-.1-2.49-.14-3.71Z"/>
  <path d="M295.58,152.41a2.79,2.79,0,0,0-2.7-2,2.37,2.37,0,0,0-1.88.64,2.12,2.12,0,0,0-.71,1.62c0,2.49,5.55,3,6.75,5.78a5,5,0,0,1-.17,4.29,4.67,4.67,0,0,1-2.49,2.28,6.92,6.92,0,0,1-3.17.62,7.38,7.38,0,0,1-3.78-1,22.06,22.06,0,0,0,.68-3h.45a3.11,3.11,0,0,0,3.24,2.51c1.45,0,2.75-.77,2.75-2.37a2.31,2.31,0,0,0-.87-1.81,15.82,15.82,0,0,0-2.63-1.48,20.1,20.1,0,0,1-1.88-1.15,4.14,4.14,0,0,1-1.62-3.53,4.33,4.33,0,0,1,1.78-3.71A5.22,5.22,0,0,1,293,149a6.47,6.47,0,0,1,3.51.94c.07.07.14.09.21.16-.28.76-.52,1.53-.76,2.31Z"/>
  <path d="M209,94.44l-.52,2a10.23,10.23,0,0,1-4.65,1,13.85,13.85,0,0,1-3.08-.35A11.16,11.16,0,0,1,198.13,96a7.92,7.92,0,0,1-1.7-1.67,7.53,7.53,0,0,1-1.43-4.7A8.22,8.22,0,0,1,197.66,83a10.07,10.07,0,0,1,6.65-2.16A10.91,10.91,0,0,1,209.1,82c-.21.8-.35,1.6-.54,2.4h-.33a4.89,4.89,0,0,0-3.9-2.07c-3.9,0-5.5,3.64-5.5,7a7.8,7.8,0,0,0,1.39,4.77,5.35,5.35,0,0,0,4.23,2,6.7,6.7,0,0,0,4.2-1.73Z"/>
  <path d="M218.12,81.19a16.18,16.18,0,0,0,2.09-.14l1,2.07c.35.75.7,1.48,1.06,2.21s.68,1.36,1,2a2.32,2.32,0,0,0,.46.77c0,.08.36-.44.38-.46.14-.24.28-.5.4-.73.49-.92.94-1.86,1.39-2.77.3-.64.58-1.3.87-1.93.16-.4.32-.78.51-1.18a.54.54,0,0,1,.28,0,5.22,5.22,0,0,0,1.93,0c-1.64,3.08-3.4,5.92-4.89,8.93v2.7c0,1.48.14,3,.23,4.45-.65,0-1.34-.12-2-.12a16.65,16.65,0,0,0-2,.12c.16-1.79.26-3.58.26-5.36V90.43c-1.76-3-3.31-6.2-5.08-9.4.71,0,1.42.12,2.12.12"/>
  <path d="M238.58,81.07c.31,0,.64.12.94.12a5.58,5.58,0,0,0,1-.12c1.72,3.76,3.58,7.43,5.43,11.12l1.39-2.71c1.43-2.77,2.79-5.56,4.08-8.41l.27.05a4.8,4.8,0,0,0,1.73-.05c.4,3.67.85,7.33,1.29,11,.17,1.36.38,2.72.57,4.09a5.63,5.63,0,0,1,.16,1c-.63,0-1.29-.12-1.92-.12s-1.27.07-1.91.12c-.16-3.62-.63-7.22-1-10.84-1.79,3.6-3.55,7.19-5.22,10.84a2.22,2.22,0,0,0-.89,0l-1.81-3.77c-1.08-2.27-2.23-4.53-3.34-6.81-.16,1.39-.35,2.78-.49,4.16-.07.89-.16,1.76-.24,2.65s-.11,1.53-.16,2.31a13.75,13.75,0,0,1-.1,1.46,5,5,0,0,0-2.18,0,3.62,3.62,0,0,1,.17-.87c.25-1.18.42-2.38.63-3.58.26-1.52.45-3,.66-4.58Z"/>
  <path d="M267.1,85.19v3.52c2.45.23,3.67-.94,3.67-3.36a4.61,4.61,0,0,0-.12-1.17c-.42-2-1.9-1.7-3.5-1.79Zm.9,5.87c-.22-.4-.45-.82-.69-1.2-.07-.09,0-.12-.16-.14a.12.12,0,0,0-.12.12v0c0,1.39.05,2.8.05,4.18v.64c0,.82.12,1.64.17,2.47-.64-.05-1.27-.12-1.91-.12s-1.26.07-1.9.12V96.7a8.23,8.23,0,0,1,.1-1.55c.12-1.53.12-3.08.12-4.63V86.27c0-1.74-.07-3.46-.16-5.2l1.62.05c1.12,0,2.25-.07,3.38-.07a8.84,8.84,0,0,1,3.78.49A3.67,3.67,0,0,1,274.36,85a4.19,4.19,0,0,1-3.66,4.23c1.29,2.26,2.74,4.42,4.16,6.61l.84,1.34c-.7-.05-1.43-.12-2.14-.12a18.52,18.52,0,0,0-2.11.12l-2.73-4.82Z"/>
  <path d="M297.81,84.5c0,.76-.07,1.53-.07,2.31s-.05,1.74-.07,2.58c-.05,2.68,0,5.12-2.47,6.81a7.53,7.53,0,0,1-4.44,1.25c-2.84,0-5.92-.89-6.79-4a6.87,6.87,0,0,1-.21-1.27,12.53,12.53,0,0,1-.05-1.62V81c.66,0,1.29.12,2,.12a13.39,13.39,0,0,0,1.9-.14,11.18,11.18,0,0,1-.11,1.15c-.12,1.86-.19,3.67-.19,5.5a31.34,31.34,0,0,0,.16,4.44,4.26,4.26,0,0,0,1.25,2.7,3.69,3.69,0,0,0,2.68,1,3.94,3.94,0,0,0,4-2.78,19,19,0,0,0,.42-4.87c0-2.34,0-4.72-.19-7.07a8.13,8.13,0,0,0,1.2.12,5.81,5.81,0,0,0,1.17-.12c-.11,1.13-.14,2.28-.18,3.43"/>
  <path d="M248.61,55.38,248.77,67l.22,5.8.11,1.2c-.81,0-1.67-.26-2.48-.26-1,0-1.88.21-2.84.26.05-.37.05-.8.11-1.18l.21-4.24L244.32,56V42.92l-.27-5.7c.91.06,1.82.22,2.74.22s1.66-.11,2.47-.16c-.06.48-.06,1-.11,1.45l-.22,4.88L248.66,53Z"/>
  <path d="M233.54,71.42c.64,2.18-11.07,3-15.38,3-14,0-25.14-7.2-25.14-19.33,0-11.39,11.1-19.34,25.14-19.34a41.66,41.66,0,0,1,14.65,2.63L230.55,42a31.35,31.35,0,0,0-12.39-2.42c-11,0-18.84,6.87-18.84,15.47s7.81,15.46,18.84,15.46A30.82,30.82,0,0,0,227.68,69l.73-.63V57.27l-.27-5.69c.91.06,2.69.22,3.6.22s1.67-.11,2.47-.16c-.05.48-.05,1-.1,1.44L233.89,58Z"/>
  <path d="M296.69,71.42c.64,2.18-11.07,3-15.39,3-14,0-25.13-7.2-25.13-19.33,0-11.39,11.09-19.34,25.13-19.34a41.86,41.86,0,0,1,14.7,2.6L293.7,42a31.43,31.43,0,0,0-12.4-2.42c-11,0-18.83,6.87-18.83,15.47s7.81,15.46,18.83,15.46A30.83,30.83,0,0,0,290.83,69l.73-.63V57.27l-.27-5.69c.91.06,2.69.22,3.6.22s1.67-.11,2.47-.16c-.05.48-.05,1-.11,1.44L297,58Z"/>
  <path d="M342.09,61.05V41.87h2.75V61.05Z"/>
  <path d="M359.47,60.47a10.4,10.4,0,0,1-4.4.91c-4.75,0-7.28-2.75-7.28-7.58,0-4.24,2.66-7.09,6.57-7.09s6.18,2.58,6.18,7.91h-10A4.58,4.58,0,0,0,355,59.29h.12a8.24,8.24,0,0,0,4.32-1.4Zm-1.68-7.77c0-2.26-1.32-3.91-3.52-3.91s-3.46,1.49-3.73,3.91Z"/>
  <path d="M372.51,60.8a7.56,7.56,0,0,1-3.25.58,7.08,7.08,0,0,1-7.15-7c0-.13,0-.25,0-.37,0-4.28,2.86-7.33,7.14-7.33a9.61,9.61,0,0,1,3.14.55l-.22,2.14a7.54,7.54,0,0,0-2.81-.61c-2.83,0-4.5,2.53-4.5,5.25,0,2.53,1.37,5.25,4.67,5.25a5.4,5.4,0,0,0,2.77-.79Z"/>
  <path d="M384.2,61.05V53.69c0-2.94-.66-4.9-3.05-4.9-3.54,0-4.18,3.6-4.18,5.69v6.57h-2.58V40.44H377V49h0a5.11,5.11,0,0,1,4.51-2.33c3.54,0,5.25,2.17,5.25,6V61Z"/>
  <path d="M388.82,64.84a3.86,3.86,0,0,0,1.21.22c1.68,0,2.72-1.73,3.08-3.43a5.18,5.18,0,0,0-.39-1.21L387.86,47h2.83l3.77,11.59h.05L398.36,47H401l-5.55,15.38c-.85,2.34-2,4.73-5,4.73a8.7,8.7,0,0,1-1.76-.19Z"/>
  <path d="M412.29,61.05v-2h-.06a5.65,5.65,0,0,1-4.78,2.31c-4.15,0-6-3.63-6-7.58,0-3.77,2-7.09,6.05-7.09A5,5,0,0,1,412.12,49h.06V40.44h2.58V61.05Zm-.11-7c0-2.47-1.24-5.28-4.18-5.28-2.58,0-3.82,2.31-3.82,5.06,0,3.08,1.49,5.44,3.88,5.44,2.86,0,4.12-2.78,4.12-5.2Z"/>
  <path d="M434,61.05V59.24h0a5.22,5.22,0,0,1-4.37,2.14c-3.24,0-5.11-1.54-5.11-4.37s2.83-4.62,6.7-4.62c1.1,0,2,0,2.56.06,0-2.56-1-3.66-3.46-3.66a6.55,6.55,0,0,0-4.07,1.43l-.14-2.2a9,9,0,0,1,4.62-1.31c3.87,0,5.63,1.84,5.63,5.77v6.15a21.67,21.67,0,0,0,.11,2.42Zm-.27-6.68h-1.68c-2.91,0-4.83.88-4.83,2.69a2.45,2.45,0,0,0,2.61,2.28h0a3.56,3.56,0,0,0,3.87-3.2,3.85,3.85,0,0,0,0-.48Z"/>
  <path d="M459.44,52.81h-4V50.55h6.79v10a18,18,0,0,1-5.83.85c-6.24,0-10.14-4-10.14-10,0-5.83,4.18-9.84,10.17-9.84a14.55,14.55,0,0,1,5.61,1l-.22,2.78A8.89,8.89,0,0,0,456.53,44a7.14,7.14,0,0,0-7.4,6.89c0,.2,0,.41,0,.61A7.16,7.16,0,0,0,455.94,59h.45a11.19,11.19,0,0,0,3.05-.33Z"/>
  <path d="M465,54c0-4.28,2.85-7.33,7.14-7.33,4.1,0,7.12,2.91,7.12,7.33A7.13,7.13,0,0,1,465,54Zm11.51,0c0-2.77-1.68-5.25-4.4-5.25s-4.37,2.56-4.37,5.25,1.49,5.25,4.4,5.25S476.51,56.76,476.51,54Z"/>
  <path d="M483.25,61.05V49.12H480V47h3.3V45.66c0-3.68,1.18-5.55,4.7-5.55a10,10,0,0,1,1.73.16l-.11,2.09a4.31,4.31,0,0,0-1.24-.16c-1.87,0-2.5,1-2.5,3.1V47h3.71v2.08h-3.71v12Z"/>
  <path d="M499.57,61.05V59.24h-.06a5.22,5.22,0,0,1-4.37,2.14c-3.24,0-5.11-1.54-5.11-4.37s2.83-4.62,6.71-4.62c1.1,0,2,0,2.55.06,0-2.56-1-3.66-3.46-3.66a6.61,6.61,0,0,0-4.07,1.43l-.13-2.2a8.93,8.93,0,0,1,4.61-1.31c3.88,0,5.64,1.84,5.64,5.77v6.15a19.51,19.51,0,0,0,.11,2.42Zm-.28-6.68h-1.67c-2.92,0-4.84.88-4.84,2.69a2.46,2.46,0,0,0,2.63,2.28h0a3.54,3.54,0,0,0,3.86-3.19,4,4,0,0,0,0-.49Z"/>
  <path d="M505.38,61.05V40.44H508V61.05Z"/>
  <path d="M341.93,91.1V71.92h5.66c5.8,0,10.22,3.6,10.22,9.45,0,6.27-3.76,9.73-10.19,9.73Zm5.69-2.42c4.17,0,7.28-1.84,7.28-7.22a6.69,6.69,0,0,0-6.26-7.11,6.09,6.09,0,0,0-.74,0h-3.18V88.68Z"/>
  <path d="M360.74,74V71h2.91v3Zm.17,17.14v-14h2.58v14Z"/>
  <path d="M377,88.93h-.06a5.82,5.82,0,0,1-4.7,2.17c-4,0-6-3.27-6-6.89,0-3.82,2.2-7.45,6.27-7.45,2.2,0,3.76.71,4.62,2.42h.05V77.09h2.39V90.53c0,4.28-2.28,6.67-7.23,6.67a14.28,14.28,0,0,1-5-1l.27-2.39a10.52,10.52,0,0,0,5,1.27c2.75,0,4.37-1.85,4.37-4.81Zm0-4.7c0-2.91-1.38-5.38-4.1-5.38-2.52,0-3.9,2.66-3.9,5.22,0,2.75,1.57,5,3.9,5S377,87,377,84.23Z"/>
  <path d="M383,74V71h2.91v3Zm.17,17.14v-14h2.58v14Z"/>
  <path d="M399.32,91.1v-2h-.06a5.65,5.65,0,0,1-4.78,2.31c-4.15,0-6-3.62-6-7.58,0-3.77,2-7.09,6-7.09A5,5,0,0,1,399.15,79h.06V70.49h2.58V91.1Zm-.11-7c0-2.47-1.24-5.27-4.18-5.27-2.58,0-3.82,2.31-3.82,5,0,3.08,1.48,5.44,3.87,5.44,2.86,0,4.13-2.78,4.13-5.2Z"/>
  <path d="M404.38,84.1c0-4.29,2.86-7.34,7.15-7.34,4.09,0,7.11,2.91,7.11,7.34a7.13,7.13,0,1,1-14.26,0Zm11.52,0c0-2.78-1.68-5.25-4.4-5.25s-4.37,2.55-4.37,5.25,1.48,5.24,4.4,5.24S415.9,86.82,415.9,84.1Z"/>
  <path d="M421.4,91.1V70.49H424V91.1Z"/>
  <path d="M448.71,90.75a11.6,11.6,0,0,1-4.37.68c-6.13,0-10.11-4-10.11-10,0-5.83,4.23-9.84,10.14-9.84a10.45,10.45,0,0,1,4.31.83l-.22,2.66a7.79,7.79,0,0,0-4-1.07,7.51,7.51,0,0,0-.13,15,9.42,9.42,0,0,0,4.17-.94Z"/>
  <path d="M449.14,94.9a4.17,4.17,0,0,0,1.21.22c1.67,0,2.72-1.74,3.08-3.44a5.18,5.18,0,0,0-.39-1.21l-4.86-13.38H451l3.76,11.59h.06l3.84-11.59h2.62l-5.56,15.39c-.85,2.33-2,4.72-5,4.72A9.07,9.07,0,0,1,449,97Z"/>
  <path d="M480.54,91.1V82.69c0-2.36-.79-3.84-2.5-3.84-2.47,0-3.68,2.31-3.68,5.22v7h-2.58V82.69c0-2.28-.75-3.84-2.51-3.84-2.44,0-3.68,2.28-3.68,5.19V91.1H463v-14h2.42v2h.05a4.71,4.71,0,0,1,4.45-2.36,4.16,4.16,0,0,1,4,2.72,5,5,0,0,1,4.37-2.72c3.16,0,4.84,1.89,4.84,5.36v9Z"/>
  <path d="M486.51,91.1v-14h2.42v2.17H489a4.26,4.26,0,0,1,3.69-2.5,7.25,7.25,0,0,1,1.67.19v2.31a3.88,3.88,0,0,0-1.43-.25c-2.36,0-3.82,2.28-3.82,5.72V91.1Z"/>
  <path d="M506.07,91.1V88.88H506a5,5,0,0,1-4.59,2.55c-3.51,0-5.24-2.14-5.24-6V77.09h2.58v7.56c0,4.31,1.9,4.69,3.08,4.69,2.58,0,4.15-2.08,4.15-5.74V77.09h2.58v14Z"/>
  <path d="M342.13,131.48V112.3h5.66c5.8,0,10.23,3.6,10.23,9.45,0,6.27-3.77,9.73-10.2,9.73Zm5.69-2.42c4.18,0,7.28-1.84,7.28-7.22a6.69,6.69,0,0,0-6.26-7.11,6.09,6.09,0,0,0-.74,0h-3.19v14.34Z"/>
  <path d="M360.94,114.33v-2.91h2.92v2.91Zm.17,17.15v-14h2.58v14Z"/>
  <path d="M377.15,129.31h0a5.85,5.85,0,0,1-4.7,2.17c-4,0-6-3.27-6-6.9,0-3.81,2.2-7.44,6.26-7.44,2.2,0,3.77.71,4.62,2.42h0v-2.09h2.4v13.44c0,4.28-2.29,6.67-7.23,6.67a14.28,14.28,0,0,1-5-1l.27-2.39a10.52,10.52,0,0,0,5,1.27c2.75,0,4.37-1.85,4.37-4.81Zm0-4.7c0-2.91-1.37-5.38-4.09-5.38-2.53,0-3.9,2.66-3.9,5.22,0,2.75,1.56,4.94,3.9,4.94S377.15,127.42,377.15,124.61Z"/>
  <path d="M383.15,114.33v-2.91h2.92v2.91Zm.17,17.15v-14h2.58v14Z"/>
  <path d="M397.33,131.43a8,8,0,0,1-2.23.38c-2.88,0-4.29-1.51-4.29-4V119.6h-3.16v-2.09h3.16v-3.25l2.59-.82v4.07h3.71v2.09H393.4v7.72a2.22,2.22,0,0,0,2,2.43h.18a3.23,3.23,0,0,0,1.76-.49Z"/>
  <path d="M408.25,131.48v-1.81h-.05a5.22,5.22,0,0,1-4.37,2.14c-3.25,0-5.12-1.54-5.12-4.37s2.83-4.61,6.71-4.61H408c0-2.55-1-3.65-3.47-3.65a6.5,6.5,0,0,0-4.06,1.43l-.14-2.2a8.94,8.94,0,0,1,4.61-1.32c3.88,0,5.64,1.84,5.64,5.77V129a21.67,21.67,0,0,0,.11,2.42Zm-.27-6.67s-1.16-.06-1.68-.06c-2.91,0-4.84.88-4.84,2.69a2.46,2.46,0,0,0,2.63,2.28h0a3.56,3.56,0,0,0,3.89-3.18,3.25,3.25,0,0,0,0-.54Z"/>
  <path d="M414.07,131.48V110.87h2.58v20.61Z"/>
  <path d="M440,131.48v-8.74h-9.18v8.74H428V112.3h2.75v8H440v-8h2.75v19.18Z"/>
  <path d="M457.41,130.91a10.6,10.6,0,0,1-4.4.9c-4.75,0-7.28-2.75-7.28-7.58,0-4.23,2.66-7.09,6.56-7.09,4.07,0,6.19,2.58,6.19,7.91h-10a4.58,4.58,0,0,0,4.47,4.67h.14a8.24,8.24,0,0,0,4.32-1.4Zm-1.68-7.78c0-2.26-1.32-3.9-3.52-3.9s-3.46,1.48-3.73,3.9Z"/>
  <path d="M469.45,131.48v-1.81h-.06a5.22,5.22,0,0,1-4.37,2.14c-3.24,0-5.11-1.54-5.11-4.37s2.83-4.61,6.71-4.61h2.55c0-2.55-1-3.65-3.46-3.65a6.55,6.55,0,0,0-4.07,1.43l-.14-2.2a9,9,0,0,1,4.62-1.32c3.88,0,5.63,1.84,5.63,5.77V129a19.52,19.52,0,0,0,.12,2.42Zm-.28-6.67s-1.15-.06-1.67-.06c-2.92,0-4.84.88-4.84,2.69a2.46,2.46,0,0,0,2.63,2.28h0a3.54,3.54,0,0,0,3.86-3.19,4,4,0,0,0,0-.49Z"/>
  <path d="M475.26,131.48V110.87h2.59v20.61Z"/>
  <path d="M489.27,131.43a8,8,0,0,1-2.22.38c-2.89,0-4.29-1.51-4.29-4V119.6H479.6v-2.09h3.16v-3.25l2.58-.82v4.07h3.71v2.09h-3.71v7.72a2.22,2.22,0,0,0,2,2.43h.18a3.23,3.23,0,0,0,1.76-.49Z"/>
  <path d="M501,131.48v-7.36c0-2.94-.66-4.89-3.05-4.89-3.55,0-4.18,3.6-4.18,5.68v6.57h-2.58V110.87h2.58v8.6h.05a5.14,5.14,0,0,1,4.51-2.33c3.55,0,5.25,2.17,5.25,6v8.32Z"/>
  <path d="M350.65,161.54v-1.82h0a5.2,5.2,0,0,1-4.37,2.15c-3.25,0-5.11-1.54-5.11-4.37s2.83-4.62,6.7-4.62c1.1,0,2,0,2.56.05,0-2.55-1-3.65-3.47-3.65a6.5,6.5,0,0,0-4.06,1.43l-.14-2.2a9,9,0,0,1,4.62-1.32c3.87,0,5.63,1.84,5.63,5.77v6.16a21.67,21.67,0,0,0,.11,2.42Zm-.27-6.68s-1.16-.06-1.68-.06c-2.91,0-4.84.88-4.84,2.7a2.46,2.46,0,0,0,2.63,2.28h0a3.56,3.56,0,0,0,3.87-3.2,4,4,0,0,0,0-.49Z"/>
  <path d="M366.11,161.54V154c0-3.68-1.35-4.67-3.08-4.67-2.69,0-4.15,2.22-4.15,5.74v6.52H356.3v-14h2.5v2.23h.05a5,5,0,0,1,4.59-2.56c3.52,0,5.25,2.14,5.25,6v8.39Z"/>
  <path d="M382.14,161.54v-2h-.06a5.65,5.65,0,0,1-4.78,2.31c-4.15,0-6-3.63-6-7.59,0-3.76,2-7.09,6.05-7.09a5,5,0,0,1,4.64,2.25h0V140.9h2.58v20.62Zm-.11-7c0-2.48-1.24-5.28-4.18-5.28-2.58,0-3.82,2.31-3.82,5.06,0,3.07,1.48,5.44,3.88,5.44,2.85,0,4.09-2.76,4.09-5.2Z"/>
  <path d="M409,161.18a11.61,11.61,0,0,1-4.37.69c-6.13,0-10.11-4-10.11-10,0-5.82,4.23-9.84,10.14-9.84a10.45,10.45,0,0,1,4.31.83l-.22,2.66a7.79,7.79,0,0,0-4-1.07,7.51,7.51,0,0,0-.13,15,9.42,9.42,0,0,0,4.17-.94Z"/>
  <path d="M420,161.54v-1.82h0a5.17,5.17,0,0,1-4.37,2.15c-3.24,0-5.11-1.54-5.11-4.37s2.83-4.62,6.71-4.62c1.1,0,2,0,2.55.05,0-2.55-1-3.65-3.46-3.65a6.55,6.55,0,0,0-4.07,1.43l-.13-2.2a8.94,8.94,0,0,1,4.61-1.32c3.88,0,5.64,1.84,5.64,5.77v6.16a21.67,21.67,0,0,0,.11,2.42Zm-.28-6.68s-1.15-.06-1.67-.06c-2.91,0-4.84.88-4.84,2.7a2.46,2.46,0,0,0,2.63,2.28h0a3.54,3.54,0,0,0,3.86-3.19,4.17,4.17,0,0,0,0-.5Z"/>
  <path d="M425.67,161.54v-14h2.42v2.17h.06a4.23,4.23,0,0,1,3.68-2.5,7.87,7.87,0,0,1,1.68.19v2.31a3.88,3.88,0,0,0-1.43-.25c-2.37,0-3.82,2.29-3.82,5.72v6.38Z"/>
  <path d="M446,161a10.74,10.74,0,0,1-4.4.91c-4.75,0-7.28-2.75-7.28-7.59,0-4.23,2.66-7.09,6.57-7.09,4.06,0,6.18,2.58,6.18,7.92h-10a4.58,4.58,0,0,0,4.49,4.67h.12a8.33,8.33,0,0,0,4.32-1.4Zm-1.68-7.78c0-2.25-1.32-3.9-3.52-3.9s-3.46,1.48-3.73,3.9Z"/>
  <path d="M472.56,161.54l-4.18-16.77h-.05l-4.21,16.77h-3.68l-5.8-19.19h3l4.59,16.44h.06l4.09-16.44h3.9l4.15,16.44h.06l4.59-16.44H482l-5.91,19.19Z"/>
  <path d="M491.1,161.54v-1.82H491a5.2,5.2,0,0,1-4.37,2.15c-3.24,0-5.11-1.54-5.11-4.37s2.83-4.62,6.71-4.62c1.1,0,2,0,2.55.05,0-2.55-1-3.65-3.46-3.65a6.55,6.55,0,0,0-4.07,1.43l-.14-2.2a9,9,0,0,1,4.62-1.32c3.88,0,5.63,1.84,5.63,5.77v6.16a21.67,21.67,0,0,0,.11,2.42Zm-.28-6.68s-1.15-.06-1.67-.06c-2.92,0-4.84.88-4.84,2.7a2.46,2.46,0,0,0,2.63,2.28h0a3.54,3.54,0,0,0,3.86-3.19,4.17,4.17,0,0,0,0-.5Z"/>
  <path d="M496.91,161.54V140.92h2.59v20.62Z"/>
  <path d="M514,161a10.43,10.43,0,0,1-4.4.91c-4.75,0-7.28-2.75-7.28-7.59,0-4.23,2.67-7.09,6.57-7.09,4.07,0,6.18,2.58,6.18,7.92H505a4.59,4.59,0,0,0,4.51,4.67h.11a8.3,8.3,0,0,0,4.31-1.4Zm-1.68-7.78c0-2.25-1.31-3.9-3.51-3.9s-3.47,1.48-3.74,3.9Z"/>
  <path d="M516.79,158.79a6.87,6.87,0,0,0,3.21,1c1.38,0,2.64-.61,2.64-2,0-.77-.49-1.46-2.53-2.36-2.88-1.29-3.54-2.5-3.54-3.93,0-2.92,2.22-4.29,4.95-4.29a11,11,0,0,1,3.21.55l-.22,2.25a7.36,7.36,0,0,0-2.72-.71c-1.4,0-2.47.6-2.47,1.7s1,1.73,2.72,2.5c2.39,1.05,3.35,2.15,3.35,4,0,2.66-2,4.37-4.92,4.37a8,8,0,0,1-3.82-.77Z"/>
</svg>
